<svg version="1.1" viewBox="0.0 0.0 960.0 720.0" fill="none" stroke="none" stroke-linecap="square" stroke-miterlimit="10" xmlns:xlink="http://www.w3.org/1999/xlink" xmlns="http://www.w3.org/2000/svg"><clipPath id="p.0"><path d="m0 0l960.0 0l0 720.0l-960.0 0l0 -720.0z" clip-rule="nonzero"/></clipPath><g clip-path="url(#p.0)"><path fill="#000000" fill-opacity="0.0" d="m0 0l960.0 0l0 720.0l-960.0 0z" fill-rule="evenodd"/><g filter="url(#shadowFilter-p.1)"><use xlink:href="#p.1" transform="matrix(1.0 0.0 0.0 1.0 1.999695275590553 -0.03490472440948536)"/></g><defs><filter id="shadowFilter-p.1" filterUnits="userSpaceOnUse"><feGaussianBlur in="SourceAlpha" stdDeviation="2.0" result="blur"/><feComponentTransfer in="blur" color-interpolation-filters="sRGB"><feFuncR type="linear" slope="0" intercept="0.0"/><feFuncG type="linear" slope="0" intercept="0.0"/><feFuncB type="linear" slope="0" intercept="0.0"/><feFuncA type="linear" slope="0.5" intercept="0"/></feComponentTransfer></filter></defs><g id="p.1"><path fill="#434343" d="m287.00787 435.0921l0 0c0 -6.1868896 5.015442 -11.202332 11.202332 -11.202332l361.59534 0c2.9710693 0 5.8204346 1.1802368 7.9212646 3.281067c2.10083 2.1008606 3.281067 4.9501953 3.281067 7.9212646l0 44.807922c0 6.1868896 -5.015442 11.202332 -11.202332 11.202332l-361.59534 0c-6.1868896 0 -11.202332 -5.015442 -11.202332 -11.202332z" fill-rule="evenodd"/><path stroke="#000000" stroke-width="1.0" stroke-linejoin="round" stroke-linecap="butt" d="m287.00787 435.0921l0 0c0 -6.1868896 5.015442 -11.202332 11.202332 -11.202332l361.59534 0c2.9710693 0 5.8204346 1.1802368 7.9212646 3.281067c2.10083 2.1008606 3.281067 4.9501953 3.281067 7.9212646l0 44.807922c0 6.1868896 -5.015442 11.202332 -11.202332 11.202332l-361.59534 0c-6.1868896 0 -11.202332 -5.015442 -11.202332 -11.202332z" fill-rule="evenodd"/></g><g filter="url(#shadowFilter-p.2)"><use xlink:href="#p.2" transform="matrix(1.0 0.0 0.0 1.0 1.999695538057757 -0.03490472440948536)"/></g><defs><filter id="shadowFilter-p.2" filterUnits="userSpaceOnUse"><feGaussianBlur in="SourceAlpha" stdDeviation="2.0" result="blur"/><feComponentTransfer in="blur" color-interpolation-filters="sRGB"><feFuncR type="linear" slope="0" intercept="0.0"/><feFuncG type="linear" slope="0" intercept="0.0"/><feFuncB type="linear" slope="0" intercept="0.0"/><feFuncA type="linear" slope="0.5" intercept="0"/></feComponentTransfer></filter></defs><g id="p.2"><path fill="#434343" d="m287.6719 345.49103l0 0c0 -6.186859 5.0154724 -11.202301 11.202332 -11.202301l361.59537 0c2.9710083 0 5.8203735 1.1802368 7.9212036 3.281067c2.100891 2.1008606 3.281128 4.9501953 3.281128 7.921234l0 44.807953c0 6.1868896 -5.015442 11.202332 -11.202332 11.202332l-361.59537 0c-6.186859 0 -11.202332 -5.015442 -11.202332 -11.202332z" fill-rule="evenodd"/><path stroke="#000000" stroke-width="1.0" stroke-linejoin="round" stroke-linecap="butt" d="m287.6719 345.49103l0 0c0 -6.186859 5.0154724 -11.202301 11.202332 -11.202301l361.59537 0c2.9710083 0 5.8203735 1.1802368 7.9212036 3.281067c2.100891 2.1008606 3.281128 4.9501953 3.281128 7.921234l0 44.807953c0 6.1868896 -5.015442 11.202332 -11.202332 11.202332l-361.59537 0c-6.186859 0 -11.202332 -5.015442 -11.202332 -11.202332z" fill-rule="evenodd"/></g><g filter="url(#shadowFilter-p.3)"><use xlink:href="#p.3" transform="matrix(1.0 0.0 0.0 1.0 1.9225233595800635 -0.5512748031495881)"/></g><defs><filter id="shadowFilter-p.3" filterUnits="userSpaceOnUse"><feGaussianBlur in="SourceAlpha" stdDeviation="2.0" result="blur"/><feComponentTransfer in="blur" color-interpolation-filters="sRGB"><feFuncR type="linear" slope="0" intercept="0.0"/><feFuncG type="linear" slope="0" intercept="0.0"/><feFuncB type="linear" slope="0" intercept="0.0"/><feFuncA type="linear" slope="0.5" intercept="0"/></feComponentTransfer></filter></defs><g id="p.3"><path fill="#434343" d="m287.00787 255.88998l0 0c0 -6.1868744 5.015442 -11.202316 11.202332 -11.202316l361.59534 0c2.9710693 0 5.8204346 1.1802368 7.9212646 3.2810822c2.10083 2.1008453 3.281067 4.9501953 3.281067 7.921234l0 44.807953c0 6.186859 -5.015442 11.202332 -11.202332 11.202332l-361.59534 0c-6.1868896 0 -11.202332 -5.0154724 -11.202332 -11.202332z" fill-rule="evenodd"/><path stroke="#000000" stroke-width="1.0" stroke-linejoin="round" stroke-linecap="butt" d="m287.00787 255.88998l0 0c0 -6.1868744 5.015442 -11.202316 11.202332 -11.202316l361.59534 0c2.9710693 0 5.8204346 1.1802368 7.9212646 3.2810822c2.10083 2.1008453 3.281067 4.9501953 3.281067 7.921234l0 44.807953c0 6.186859 -5.015442 11.202332 -11.202332 11.202332l-361.59534 0c-6.1868896 0 -11.202332 -5.0154724 -11.202332 -11.202332z" fill-rule="evenodd"/></g><path fill="#00ff00" d="m304.042 279.71127l0 0c0 -5.3053894 4.3009033 -9.606293 9.606293 -9.606293l0 0c2.54776 0 4.99115 1.012085 6.792694 2.8136292c1.8015137 1.8015137 2.8136292 4.244934 2.8136292 6.7926636l0 0c0 5.30542 -4.3009033 9.606323 -9.606323 9.606323l0 0c-5.3053894 0 -9.606293 -4.3009033 -9.606293 -9.606323z" fill-rule="evenodd"/><path stroke="#000000" stroke-width="1.0" stroke-linejoin="round" stroke-linecap="butt" d="m304.042 279.71127l0 0c0 -5.3053894 4.3009033 -9.606293 9.606293 -9.606293l0 0c2.54776 0 4.99115 1.012085 6.792694 2.8136292c1.8015137 1.8015137 2.8136292 4.244934 2.8136292 6.7926636l0 0c0 5.30542 -4.3009033 9.606323 -9.606323 9.606323l0 0c-5.3053894 0 -9.606293 -4.3009033 -9.606293 -9.606323z" fill-rule="evenodd"/><path fill="#00ff00" d="m304.042 370.3622l0 0c0 -5.30542 4.3009033 -9.606293 9.606293 -9.606293l0 0c2.54776 0 4.99115 1.012085 6.792694 2.8135986c1.8015137 1.8015442 2.8136292 4.244934 2.8136292 6.792694l0 0c0 5.3053894 -4.3009033 9.606293 -9.606323 9.606293l0 0c-5.3053894 0 -9.606293 -4.3009033 -9.606293 -9.606293z" fill-rule="evenodd"/><path stroke="#000000" stroke-width="1.0" stroke-linejoin="round" stroke-linecap="butt" d="m304.042 370.3622l0 0c0 -5.30542 4.3009033 -9.606293 9.606293 -9.606293l0 0c2.54776 0 4.99115 1.012085 6.792694 2.8135986c1.8015137 1.8015442 2.8136292 4.244934 2.8136292 6.792694l0 0c0 5.3053894 -4.3009033 9.606293 -9.606323 9.606293l0 0c-5.3053894 0 -9.606293 -4.3009033 -9.606293 -9.606293z" fill-rule="evenodd"/><path fill="#00ff00" d="m304.042 462.43045l0 0c0 -5.30542 4.3009033 -9.606293 9.606293 -9.606293l0 0c2.54776 0 4.99115 1.012085 6.792694 2.8135986c1.8015137 1.8015442 2.8136292 4.244934 2.8136292 6.792694l0 0c0 5.30542 -4.3009033 9.606293 -9.606323 9.606293l0 0c-5.3053894 0 -9.606293 -4.300873 -9.606293 -9.606293z" fill-rule="evenodd"/><path stroke="#000000" stroke-width="1.0" stroke-linejoin="round" stroke-linecap="butt" d="m304.042 462.43045l0 0c0 -5.30542 4.3009033 -9.606293 9.606293 -9.606293l0 0c2.54776 0 4.99115 1.012085 6.792694 2.8135986c1.8015137 1.8015442 2.8136292 4.244934 2.8136292 6.792694l0 0c0 5.30542 -4.3009033 9.606293 -9.606323 9.606293l0 0c-5.3053894 0 -9.606293 -4.300873 -9.606293 -9.606293z" fill-rule="evenodd"/><path fill="#00ff00" d="m329.8714 279.71127l0 0c0 -5.3053894 4.300873 -9.606293 9.606293 -9.606293l0 0c2.54776 0 4.99115 1.012085 6.7926636 2.8136292c1.8015442 1.8015137 2.8136292 4.244934 2.8136292 6.7926636l0 0c0 5.30542 -4.300873 9.606323 -9.606293 9.606323l0 0c-5.30542 0 -9.606293 -4.3009033 -9.606293 -9.606323z" fill-rule="evenodd"/><path stroke="#000000" stroke-width="1.0" stroke-linejoin="round" stroke-linecap="butt" d="m329.8714 279.71127l0 0c0 -5.3053894 4.300873 -9.606293 9.606293 -9.606293l0 0c2.54776 0 4.99115 1.012085 6.7926636 2.8136292c1.8015442 1.8015137 2.8136292 4.244934 2.8136292 6.7926636l0 0c0 5.30542 -4.300873 9.606323 -9.606293 9.606323l0 0c-5.30542 0 -9.606293 -4.3009033 -9.606293 -9.606323z" fill-rule="evenodd"/><path fill="#00ff00" d="m329.8714 370.3622l0 0c0 -5.30542 4.300873 -9.606293 9.606293 -9.606293l0 0c2.54776 0 4.99115 1.012085 6.7926636 2.8135986c1.8015442 1.8015442 2.8136292 4.244934 2.8136292 6.792694l0 0c0 5.3053894 -4.300873 9.606293 -9.606293 9.606293l0 0c-5.30542 0 -9.606293 -4.3009033 -9.606293 -9.606293z" fill-rule="evenodd"/><path stroke="#000000" stroke-width="1.0" stroke-linejoin="round" stroke-linecap="butt" d="m329.8714 370.3622l0 0c0 -5.30542 4.300873 -9.606293 9.606293 -9.606293l0 0c2.54776 0 4.99115 1.012085 6.7926636 2.8135986c1.8015442 1.8015442 2.8136292 4.244934 2.8136292 6.792694l0 0c0 5.3053894 -4.300873 9.606293 -9.606293 9.606293l0 0c-5.30542 0 -9.606293 -4.3009033 -9.606293 -9.606293z" fill-rule="evenodd"/><path fill="#00ff00" d="m329.8714 461.01312l0 0c0 -5.30542 4.300873 -9.606293 9.606293 -9.606293l0 0c2.54776 0 4.99115 1.012085 6.7926636 2.8136292c1.8015442 1.8015137 2.8136292 4.2449036 2.8136292 6.7926636l0 0c0 5.30542 -4.300873 9.606293 -9.606293 9.606293l0 0c-5.30542 0 -9.606293 -4.300873 -9.606293 -9.606293z" fill-rule="evenodd"/><path stroke="#000000" stroke-width="1.0" stroke-linejoin="round" stroke-linecap="butt" d="m329.8714 461.01312l0 0c0 -5.30542 4.300873 -9.606293 9.606293 -9.606293l0 0c2.54776 0 4.99115 1.012085 6.7926636 2.8136292c1.8015442 1.8015137 2.8136292 4.2449036 2.8136292 6.7926636l0 0c0 5.30542 -4.300873 9.606293 -9.606293 9.606293l0 0c-5.30542 0 -9.606293 -4.300873 -9.606293 -9.606293z" fill-rule="evenodd"/><g filter="url(#shadowFilter-p.4)"><use xlink:href="#p.4" transform="matrix(1.0 0.0 0.0 1.0 1.999695538057757 -0.03490472440944717)"/></g><defs><filter id="shadowFilter-p.4" filterUnits="userSpaceOnUse"><feGaussianBlur in="SourceAlpha" stdDeviation="2.0" result="blur"/><feComponentTransfer in="blur" color-interpolation-filters="sRGB"><feFuncR type="linear" slope="0" intercept="0.0"/><feFuncG type="linear" slope="0" intercept="0.0"/><feFuncB type="linear" slope="0" intercept="0.0"/><feFuncA type="linear" slope="0.5" intercept="0"/></feComponentTransfer></filter></defs><g id="p.4"><path fill="#434343" d="m293.90814 233.85301l3.4803162 -13.921249l374.28348 0l-3.4803467 13.921249z" fill-rule="evenodd"/><path stroke="#000000" stroke-width="1.0" stroke-linejoin="round" stroke-linecap="butt" d="m293.90814 233.85301l3.4803162 -13.921249l374.28348 0l-3.4803467 13.921249z" fill-rule="evenodd"/></g><path fill="#ff9900" d="m355.70078 279.71127l0 0c0 -5.3053894 4.3009033 -9.606293 9.606323 -9.606293l0 0c2.5477295 0 4.99115 1.012085 6.7926636 2.8136292c1.8015442 1.8015137 2.8136292 4.244934 2.8136292 6.7926636l0 0c0 5.30542 -4.3009033 9.606323 -9.606293 9.606323l0 0c-5.30542 0 -9.606323 -4.3009033 -9.606323 -9.606323z" fill-rule="evenodd"/><path stroke="#000000" stroke-width="1.0" stroke-linejoin="round" stroke-linecap="butt" d="m355.70078 279.71127l0 0c0 -5.3053894 4.3009033 -9.606293 9.606323 -9.606293l0 0c2.5477295 0 4.99115 1.012085 6.7926636 2.8136292c1.8015442 1.8015137 2.8136292 4.244934 2.8136292 6.7926636l0 0c0 5.30542 -4.3009033 9.606323 -9.606293 9.606323l0 0c-5.30542 0 -9.606323 -4.3009033 -9.606323 -9.606323z" fill-rule="evenodd"/><path fill="#ff9900" d="m355.70078 370.3622l0 0c0 -5.30542 4.3009033 -9.606293 9.606323 -9.606293l0 0c2.5477295 0 4.99115 1.012085 6.7926636 2.8135986c1.8015442 1.8015442 2.8136292 4.244934 2.8136292 6.792694l0 0c0 5.3053894 -4.3009033 9.606293 -9.606293 9.606293l0 0c-5.30542 0 -9.606323 -4.3009033 -9.606323 -9.606293z" fill-rule="evenodd"/><path stroke="#000000" stroke-width="1.0" stroke-linejoin="round" stroke-linecap="butt" d="m355.70078 370.3622l0 0c0 -5.30542 4.3009033 -9.606293 9.606323 -9.606293l0 0c2.5477295 0 4.99115 1.012085 6.7926636 2.8135986c1.8015442 1.8015442 2.8136292 4.244934 2.8136292 6.792694l0 0c0 5.3053894 -4.3009033 9.606293 -9.606293 9.606293l0 0c-5.30542 0 -9.606323 -4.3009033 -9.606323 -9.606293z" fill-rule="evenodd"/><path fill="#ff9900" d="m355.70078 461.01312l0 0c0 -5.30542 4.3009033 -9.606293 9.606323 -9.606293l0 0c2.5477295 0 4.99115 1.012085 6.7926636 2.8136292c1.8015442 1.8015137 2.8136292 4.2449036 2.8136292 6.7926636l0 0c0 5.30542 -4.3009033 9.606293 -9.606293 9.606293l0 0c-5.30542 0 -9.606323 -4.300873 -9.606323 -9.606293z" fill-rule="evenodd"/><path stroke="#000000" stroke-width="1.0" stroke-linejoin="round" stroke-linecap="butt" d="m355.70078 461.01312l0 0c0 -5.30542 4.3009033 -9.606293 9.606323 -9.606293l0 0c2.5477295 0 4.99115 1.012085 6.7926636 2.8136292c1.8015442 1.8015137 2.8136292 4.2449036 2.8136292 6.7926636l0 0c0 5.30542 -4.3009033 9.606293 -9.606293 9.606293l0 0c-5.30542 0 -9.606323 -4.300873 -9.606323 -9.606293z" fill-rule="evenodd"/></g></svg>